/* XPM */
static char *result[] = {
/* columns rows colors chars-per-pixel */
"75 75 169 2 ",
"   c #6E5967",
".  c #6E5C6A",
"X  c #705A67",
"o  c #745C69",
"O  c #7B5E6B",
"+  c #6A606E",
"@  c #74606D",
"#  c #7C626D",
"$  c #666776",
"%  c #6C6372",
"&  c #6C6877",
"*  c #656979",
"=  c #6B6D7C",
"-  c #706574",
";  c #736A77",
":  c #7C6A75",
">  c #726B79",
",  c #6F707E",
"<  c #71707E",
"1  c #835F6F",
"2  c #83616E",
"3  c #88636F",
"4  c #84686F",
"5  c #836670",
"6  c #8C6471",
"7  c #866A73",
"8  c #8A6C74",
"9  c #856F7B",
"0  c #926673",
"q  c #996775",
"w  c #936C75",
"e  c #9C6A76",
"r  c #9E6A78",
"t  c #8E7176",
"y  c #8F7378",
"u  c #947176",
"i  c #9B7277",
"p  c #947379",
"a  c #9A767B",
"s  c #9B797D",
"d  c #A26E76",
"f  c #A66E79",
"g  c #AA6F7A",
"h  c #B26C77",
"j  c #BC6F7A",
"k  c #A67077",
"l  c #A3727A",
"z  c #AD707B",
"x  c #A47B7D",
"c  c #AA7B7E",
"v  c #B2767D",
"b  c #BA777D",
"n  c #B3797E",
"m  c #BC797E",
"M  c #A1807F",
"N  c #5F7485",
"B  c #617484",
"V  c #6A7584",
"C  c #667A8A",
"Z  c #6B7C8A",
"A  c #747582",
"S  c #727886",
"D  c #797A85",
"F  c #717B89",
"G  c #7D7480",
"H  c #817480",
"J  c #A57F81",
"K  c #AC7F81",
"L  c #B47C82",
"P  c #B87F80",
"I  c #C57D81",
"U  c #D97C83",
"Y  c #6F808F",
"T  c #79848F",
"R  c #6B8292",
"E  c #718391",
"W  c #7C8792",
"Q  c #718997",
"!  c #768E9B",
"~  c #7B8F9A",
"^  c #7C8893",
"/  c #79909C",
"(  c #80939C",
")  c #A78281",
"_  c #AD8485",
"`  c #A98985",
"'  c #AB8C89",
"]  c #B48384",
"[  c #BA8586",
"{  c #B28987",
"}  c #BE8B87",
"|  c #BB8788",
" . c #B58B8A",
".. c #BD8C8B",
"X. c #A9928E",
"o. c #B5928B",
"O. c #BE918D",
"+. c #A99793",
"@. c #BF9A90",
"#. c #8397A0",
"$. c #849EA6",
"%. c #86A0A8",
"&. c #C38182",
"*. c #CB8585",
"=. c #C28A86",
"-. c #C08F8C",
";. c #CA8E89",
":. c #D68485",
">. c #DC8787",
",. c #DB8D8A",
"<. c #C1928E",
"1. c #C9928B",
"2. c #C3988F",
"3. c #CA998F",
"4. c #D1968E",
"5. c #C39490",
"6. c #C59E93",
"7. c #CE9D92",
"8. c #D39F94",
"9. c #D99C92",
"0. c #E18788",
"q. c #E38C8A",
"w. c #E5928E",
"e. c #E79791",
"r. c #E49B92",
"t. c #E99C94",
"y. c #C5A397",
"u. c #CEA396",
"i. c #C5AB9F",
"p. c #C5A599",
"a. c #D7A496",
"s. c #DEA095",
"d. c #D3AA9A",
"f. c #D9AD9C",
"g. c #DCB19E",
"h. c #E2A195",
"j. c #EBA296",
"k. c #ECA699",
"l. c #EFAB9C",
"z. c #F0AE9D",
"x. c #E9B19F",
"c. c #F1B19F",
"v. c #C5AEA1",
"b. c #DFAFA1",
"n. c #C5B4A8",
"m. c #C5B2A6",
"M. c #E7B7A2",
"N. c #EAB5A1",
"B. c #EFB9A4",
"V. c #E4BCAB",
"C. c #F2B4A1",
"Z. c #F5BCA5",
"A. c #EFC0A8",
"S. c #F6C1A9",
"D. c #F8C4AA",
"F. c #FBCAAE",
"G. c #F4C8B3",
"H. c #FBCDB2",
"J. c #E6D3BE",
"K. c #FBD1B5",
"L. c #F7D2BA",
"P. c #FBD6BA",
"I. c #FADABE",
"U. c #F0DDC4",
"Y. c #FADEC2",
"T. c #FAE2C6",
"R. c #FAE5C9",
"E. c #FAE9CD",
"W. c None",
/* pixels */
"W.W.W.W.W.W.W.W.W.W.W.W.W.W.W.                          X                                                               W.W.W.W.W.W.W.W.W.W.W.W.W.W.W.",
"W.W.W.W.W.W.W.W.W.W.W.W.    s y.O.x # u } 2.2.y.y.y.v.i.2.i.n.n.i.y.-.c # u } 2.6.y.6.y.v.i.y.v.n.n.n.m.y.2.} u # c O.6.s     W.W.W.W.W.W.W.W.W.W.W.W.",
"W.W.W.W.W.W.W.W.W.W.W.w a M y.F.Z.a.4 _ c.D.F.F.F.H.I.P.F.P.T.T.P.F.Z.3.4 M c.D.F.F.F.H.I.P.F.P.Y.T.T.I.H.D.Z.M 4 a.Z.F.y.M a u W.W.W.W.W.W.W.W.W.W.W.",
"W.W.W.W.W.W.W.W.# # : O.c.D.F.F.F.g.4 ` F.F.F.F.F.F.F.F.F.F.F.F.F.F.F.d.4 o.F.F.F.F.F.F.F.F.F.F.F.F.F.F.F.F.F.o.5 g.F.F.F.D.C.O.: # # W.W.W.W.W.W.W.W.",
"W.W.W.W.W.W.W.# [ M.J.U.Y.K.F.F.F.f.5 o.F.F.F.F.F.F.F.F.F.F.F.F.F.F.F.f.# o.F.F.F.F.F.F.F.F.F.F.F.F.F.F.F.F.F.{ 5 f.F.F.F.K.Y.U.U.f.} # W.W.W.W.W.W.W.",
"W.W.W.W.W.  a ..V.L.P.P.P.H.F.F.Z.8.5 _ C.D.F.F.F.F.F.F.F.F.F.F.F.F.Z.7.# { Z.D.F.F.F.F.F.F.F.F.F.F.F.F.F.D.c._ 5 a.Z.F.F.F.P.P.P.L.V...a . W.W.W.W.W.",
"W.W.W.W.5 i 6.S.P.P.F.F.F.Z.Z.c.k.;.2 c t.l.C.C.c.c.Z.c.c.C.C.C.c.c.k.=.# c j.l.C.C.C.c.C.C.c.c.c.C.c.c.C.l.j.x 2 1.k.c.Z.S.F.F.F.P.I.S.6.i 4 W.W.W.W.",
"W.W.W.  u s.G.R.K.F.F.F.S.z.t.0.0.I # e :.:.:.>.:.:.:.:.:.:.:.:.:.:.:.b o k :.:.:.:.:.:.:.:.:.:.:.:.>.:.:.:.:.e # I 0.q.e.k.S.F.F.F.L.R.G.s.u   W.W.W.",
"W.W.W.  p M.F.K.H.F.F.Z.k.w.q.q.U j 1 o 1 1 1 O 1 # 1 2 2 O 1 1 2 2 2 o   X # # 1 # 1 O 2 O 2 2 2 1 # 2 2 1 1 o O j U 0.0.e.k.Z.F.F.F.K.F.x.y   W.W.W.",
"W.W.o x 3.S.F.F.F.D.C.j.w.q.&.e q 6 X o 1 6 0 q 0 0 0 0 0 0 0 q 3 2 o X   % * .     O 6 0 0 0 0 0 0 0 0 0 6 1 o o 6 q e I q.w.j.c.D.F.F.F.D.3.x @ W.W.",
"W.W.@ <.Z.D.F.F.F.Z.t.w.>.I e X     O 6 d f h g z z z z g z g g f q 1     $ N %     6 q g g z z z z z z z f e 6 O X X   e I 0.w.j.Z.F.F.F.F.Z.<.X W.W.",
"W.W.# u.F.F.F.F.F.C.q.>.I 3   X   o 3 q f f f f k f f f g g f f f d 1     * N +     6 f g f f g f f f g f f f q 1 O X     3 I >.q.c.D.F.F.F.F.u.# W.W.",
"  x 9.B.F.F.F.D.c.j.0.z # X     X   o o O o O # o O o O O O o O o o X X   $ N %     o O O o O o o o O O O O O o o         X # z q.j.c.F.F.F.F.Z.s.a X ",
"  ) Z.D.F.F.F.D.k.w.0.f     o 1 6 0 0 0 0 0 0 0 0 0 0 0 0 0 0 0 3 3 o     $ N %                 X X   X X X                   k 0.w.k.F.F.F.F.D.Z.)   ",
"  ` F.F.F.F.F.D.t.>.P 0   O 3 q f z v L L L L L L L m L L L L L g q 1     = C %     O 2 5 6 8 8 8 8 8 8 8 8 8 8 7 5 3 2 # O   0 m :.t.S.F.F.F.F.F.`   ",
"  ) F.F.F.F.F.S.t.b o   o 6 r z z v n } <.<.5.5.5.5.<.<.5.5.=.| n g 2     > R -     0 z P } 5.5.<.<.<.<.5.5.<.<.<.} m g e 3 X   o b t.S.F.F.F.F.F.`   ",
"  M c.S.F.F.Z.l.e.b X   O r f g g L ..<.5.5.5.5.5.5.5.5.5.5.1.<.] g #     > E %     6 L ..O.5.5.<.5.5.5.5.5.5.5.5.<.] g g q O   o m w.k.Z.F.H.F.c.c X ",
"X 4 x ) ` ` M x f 6 X   X 5 6 6 6 6 y p p p p p p p p p y p a H w 6 o     = C %     O 6 w p p p i p p p p p p p p p w 6 6 5 X   X 6 k x M M M M M 4 X ",
"  2 u s s s a i q 6             O 5 5 8 7 8 8 7 7 8 8 6 7 7 8 7 8 7 6 O o = C % o 1 5 8 7 8 8 8 8 8 8 8 7 8 7 7 7 # O           o 3 w i M M M a u # X ",
"  x l.Z.F.F.Z.k.q.L o     .   . 6 L ..5.5.5.5.5.5.5.5.5.5.5.5.5.5.5.] q o , E % 1 g | 5.5.5.5.5.@.5.5.5.5.5.5.5...L 0   . . .   o m w.k.Z.F.F.Z.k.x X ",
"X M S.F.F.F.F.Z.e.P o + B Z Z B - 8  .5.5.5.5.5.5.5.5.5.5.5.5.5.5.5...K O * B % 8 ..O.5.5.5.5.5.5.5.5.5.5.5.5.5. .8 & B Z Z B $ o m e.Z.F.F.F.F.D.M   ",
"X X.I.K.F.F.F.D.e.I o A R / ! Z & 5  .5.5.5.5.5.5.5.5.5.5.5.5.5.5.5.5._ O = Z & 8 5.5.5.5.5.5.5.5.5.5.5.5.5.5.5. .5 & Z ! ! Z V o m t.D.F.F.F.K.Y.o.  ",
"X +.E.P.F.F.F.D.t.P o > F ^ E F : w ..5.5.5.5.5.5.5.5.5.5.5.5.5.5.5.5._ O V E - 8 O.5.5.5.5.5.5.5.5.5.5.5.5.5.5...w : Z E ^ F > o m t.D.F.F.F.P.E.+.  ",
"  +.E.P.F.F.F.D.t.P o X o o o . q L -.5.5.5.5.5.5.5.5.5.5.5.5.5.5.5.5._ O V E - 8 O.5.5.5.5.5.5.5.5.5.5.5.5.5.5...L r X o o o o @ m t.D.F.F.F.P.E.+.  ",
"  ` P.F.F.F.F.D.t.m o 3 f K  . . .O.5.5.5.5.5.5.5.O.O.5.5.5.5.5.5.5.P f o F #.> 6 K [ 5.5.5.-.5.5.5.5.1.5.5.5.1.5.....{ { K f 6 o m e.D.F.F.F.F.K.M X ",
"  X.I.K.F.F.F.D.t.m o # 0 u p p p p p p f H a u p J r H f H a p p p 8 1 o D #.> O 6 0 p p p 9 J H w J H u w J H p a p p p p 6 # o m t.D.F.F.F.H.Y.X.X ",
"  X.T.K.F.F.F.D.t.m o X             .               X X                 o D #.> o O 5 7 7 7 7 7 0 6 7 7 7 7 7 7 7 7 7 7 7 5 # # # m t.D.F.F.F.K.T.X.X ",
"  ` F.F.F.F.F.D.t.m o X           o   o   o     o X o X             X   X D #.> 1 g | 5.5.5.5.5.5.5.5.5.5.5.5.5.5.5.5.5.5...L 6 X m t.D.F.F.F.F.F.' X ",
"  ` F.F.F.F.F.D.t.m o 1 6 q d d r r d d r d f q r r d d d r f r r q 0 1 o A E - 8 ..O.5.5.5.5.5.5.5.5.5.5.5.5.5.5.5.5.5.5.-.-.J # m e.D.F.F.F.F.F.' @ ",
"  ` F.F.F.F.F.D.t.m O 3 d g z g g g z z L g h g g g z z g g h g g K f 0 o S ~ > 8 O.5.5.5.5.5.5.5.5.5.5.5.5.5.5.5.5.5.5.5.5...J X m t.D.F.F.F.F.F.M X ",
"  M D.F.F.F.D.Z.e.m o 3 g g g v z z z z g g h g v z z z L g h g g h g q o D ( > 8 | 5.5.5.5.5.5.5.5.5.5.5.5.5.5.5.5.5.5.5.O.| p X m t.Z.D.F.F.F.S.M X ",
"  x k.S.D.D.Z.h.w.m o 1 q f g g g z z z g g L f g g g z g g L f L g q 1 o > E - 1 g ] O.5.5.O.5.O.5.5.5.5.O.5.5.O.5.O.5.5.| L 0 @ b w.h.c.F.F.Z.k.x X ",
"  # 7 t y p w 7 6 O o o o @ O O O O O O O o O O O O O O O O O O O O o o   > F - X O 5 5 5 5 # : : 5 5 5 # 5 5 5 5 7 5 5 5 # O o X 2 3 w u u a t t # X ",
"  7 ] { o.o.{ L z q . O 6 0 J J J f H J J J u J p J a p J a s a J r 0 1   V C - o 6 w a a s J a i a a a p J J H a a a a J y 0 5 X e k M M o.2.M M w X ",
"  x c.D.F.F.Z.l.e.P o 0 L -.5.5.-.5.5.5...O.5.5.5.5.5.5.5.5.5.5...5.| J o * N % 6 L  .5.5.5.5.5.5.5.5.5.5.5.5.5.5.5.5.5.5.O.L w o m w.l.D.F.F.D.c.M X ",
"  ` F.F.F.F.F.F.t.m o J 5.5.5.5.5.5.5.5.5.5.5.5.5.5.5.5.5.5.5.5.O.O.O._ @ * N % 8 O.5.5.5.5.5.5.5.5.5.5.5.5.5.5.5.5.5.5.5.5.-.J o m t.D.F.F.F.F.F.M X ",
"  X.T.P.F.F.F.Z.t.b o x 5.5.5.5.5.5.5.5.5.5.5.5.5.5.5.5.5.5.5.5.| L w 5 o . + . # 5 r L -.5.5.5.5.5.5.5.5.5.5.5.5.5.5.5.5.5.5.J o m t.D.F.F.F.P.T.X.X ",
"  +.E.P.F.F.F.F.t.P X r | ..5.5.5.5.5.5.5.5.5.5.5.5.5.5.5.5.<.=.J 0 H D D > o A D D H r L -.5.5.5.5.5.5.5.5.5.5.5.5.5.5.5.O.| w o m t.D.F.F.F.P.E.+.X ",
"  X.T.P.F.F.F.F.e.P o 6 f J _ K _ ] _ _ _ _ _ _ _ _ _ _ _ _ _ z 0 + D $.$.D + ^ $.$.D O a K K _ ' { _ _ _ ] { _ _ _ K _ _ K r 5 o m j.D.F.F.F.K.T.+.@ ",
"  ` F.F.F.F.F.Z.t.P X   . . o   .   . .   . o   o     o       X   . S / $.D + F / $.A       . o                 o @     .     o o m j.D.F.F.F.F.F.M X ",
"  X.T.P.F.F.F.S.t.I o       o                   X X X X X   X X   o S ! $.D + F ! %.D O 0 J K K _ _ _ _ _ _ _ _ K _ _ _ _ K r 1 o b e.S.F.F.F.K.T.X.  ",
"  X.P.K.F.F.F.D.t.j o     O 1 6 6 6 3 3 6 6 6 6 3 3 3 6 0 3 1 1 o . S ! %.D @ F ! %.S O J | -.5.5.5.5.5.5.5.5.5.5.5.5.5.5.5.| r # m t.D.F.F.F.H.I.X.  ",
"  ` F.F.F.F.F.D.t.L o   O 6 f h g g g L h f h L z z z z g z g d 1 . S ! $.D . F / $.A 1 { 5.5.5.5.5.5.5.5.5.5.5.5.5.5.5.5.@.5.J o m t.D.F.F.F.F.F.`   ",
"  ` F.F.F.F.F.D.t.b O   o d g g g L h g f L f h z z z z z z z g 0 . S ! $.D @ F / $.D # { 5.5.5.5.5.5.5.5.5.5.5.5.5.5.5.5.O...J @ m t.D.F.F.F.F.F.`   ",
"@ { F.F.F.F.F.D.t.P O   O 6 r L L h g K L h L h z z z z z g g r 1 . S ! $.D . F / $.A O l [ 5.5.5...O.O.<.5.5.5.O...O...5...L w # b e.D.F.F.F.F.F.' @ ",
"  M c.D.F.F.D.c.e.P o     O 1 0 6 6 6 0 1 6 6 1 0 3 0 0 0 6 6 1 O o S ! $.D + F / $.D o 6 w p J J J J J a H J r J J J J J y 0 1 o m e.c.D.F.F.D.c.M   ",
"  i 4.f.g.g.a.4.I g o o O 1 5 # O 1 # 5 # 5 1 1 5 : 2 : 2 5 5 O o . S ! $.D @ F / $.D                                       . . o k *.4.a.g.g.a.3.i   ",
"    X @ o o o X o .   0 L | ..5.O.5.O.5.5.O.5.-.<.O.<.<.<.O...c 6 . S ! $.D + F / $.D .                                       . X X X o o @ X @ @     ",
"  i 1.u.d.d.7.1.&.k o i =.<.<.5.5.5.5.5.5.5.5.5.5.5.5.5.5.5.5...a   F ! %.D + F ~ $.A   1 6 e q 0 q q q r q q q d q r q 0 1 o   o k I ;.8.d.f.u.1.i @ ",
"  M c.S.F.F.S.c.e.m @ s 2.<.5.5.5.5.5.5.5.5.5.5.5.5.5.5.5.5.5.5.J   S ! $.D . F / $.D O 0 f z z J f L h g g g z g h z z f 0 o   o m e.c.S.F.F.D.c.M   ",
"  ' K.H.F.F.F.D.t.m @ i <.<.5.5.5.5.5.5.5.5.5.5.5.5.5.5.5.5.5.} a   S ! $.D . F / $.D O e g z z f L f h L g g L g z z z g q O   o m t.D.F.F.F.F.K.'   ",
"  +.E.P.F.F.F.S.t.m o 0 v -.5.5.5.5.5.5.5.5.5.5.5.5.5.5.5.5...L 6 . F / %.D o F / $.A o 3 d g z h h r L h g g g z z z z q 6 o   o m t.D.F.F.F.K.E.X.  ",
"  +.E.P.F.F.F.D.t.b o O 2 5 8 7 7 8 7 7 8 5 8 8 7 7 7 7 8 7 5 3 O   S ! $.D . F / $.D   O O 1 1 O 1 1 O 1 1 1 1 1 1 1 1 O 1 o   o m t.D.F.F.F.P.E.+.  ",
"  X.I.K.F.F.F.D.t.b o O 6 u p p p p p p p p p p p p p p p p u w 5   V Q $.D . C ! $.D O 7 w p p H 0 0 J u y p p p p p y u H y 6 o m t.D.F.F.F.K.I.X.  ",
"  ` K.H.F.F.F.D.j.b o 6 l _ { { ..O.5.5.5.5.5.5.5.5.5.5.5.5.<.} i O = C / D . B Z / G 6 c =.5.5.1.5.5.5.5.5.5.5.<..... .{  .] p o m t.S.F.F.F.H.K.`   ",
"  +.R.P.F.F.F.D.t.b o X o o o o q L ..5.5.5.5.5.5.5.5.5.5.5.<.<.] f 5   . * N % o . 6 z ..<.5.5.5.5.5.5.5.5.5.5.-.L w o o o o X o m t.F.F.F.F.K.E.+.  ",
"@ { P.H.F.F.F.D.t.I o > F ^ W F : w  .5.5.5.5.5.5.5.5.5.5.5.5.5.-...K w o * B + 2 i L ..<.5.5.5.5.5.5.5.5.5.5.5...8 > F W ^ F - o m t.D.F.F.F.F.P.'   ",
"  M F.F.F.F.F.D.t.b o = R / ! Y & 5  .5.5.5.5.5.5.5.5.5.5.5.5.5.5.5...K o = C % 7 | <.5.5.5.5.5.5.5.5.5.5.5.5.5. .5 & Z ! ~ R V o m t.D.F.F.F.F.F.`   ",
"  ` F.F.F.F.F.S.t.b O $ B Z C N & 8  .5.5.5.5.5.5.5.5.5.5.5.5.5.5.5.-.K o A E & y ..5.5.5.5.5.5.5.5.5.5.5.5.5.5...8 - B Z Z B $ o m t.D.F.F.F.F.F.M   ",
"  ` F.F.F.F.F.D.t.P o   . .     0 v -.5.5.5.5.5.5.5.5.5.5.5.5.5.5.-.L r o > E - 8 -.5.5.5.5.5.5.5.5.5.5.5.5.5.5...K 0   . . o   o I t.D.F.F.F.F.F.'   ",
"  M c.D.F.F.S.c.w.m o           O 3 7 8 8 8 7 8 8 5 8 8 0 8 8 8 8 8 6 1 X > E % @ 8 8 8 8 6 8 y 8 8 8 8 w 8 8 8 7 5 O           o m w.c.S.F.F.S.c.M # ",
"  8 M O.@.@.o.[ n e o o 1 6 5 2 3 3 3 3 3 3 3 6 6 6 3 6 1 1 6 1 1 O X     V Z % o 5 8 p p y y w p y y y w y p y y p p p p y 6 O X e n M } @.2.@.M i X ",
"X @ w 8 7 7 7 2 3 O   1 r g g v v g z z z z z g g z z z L g g L d 0 O     $ C % 6 z | 5.5.5.5.5.5.5.<.5.5.5.5.5.5.5.5.5.5...L 0 X # # 4 4 7 4 4 4 @ X ",
"X x h.x.A.A.x.r.,.v o 0 g z g g g z z z z z z z z z z z g h g g g g 1     V E % 8 ..5.5.5.5.5.5.5.5.5.5.5.5.5.5.5.5.5.5.5.-...J o n ,.h.x.A.A.x.h.x   ",
"X M S.D.F.F.D.c.e.m o 3 r f z g v g z z g z z z z z z z z z z z d q O     & C % 8 O.5.5.5.5.5.5.5.5.5.5.5.5.5.5.5.5.5.5.5.5.5.s o b t.Z.D.F.F.D.S.M   ",
"  ' P.K.F.F.F.F.t.m o # 1 0 0 0 0 0 0 q 0 0 0 q 0 0 0 0 0 0 0 0 6 1 o .   V C % 6 L O.5.5.5.5.5.5.5.5.5.5.5.5.5.5.5.5.5.5.<...p O b t.D.F.F.F.H.P.X.  ",
"  +.E.P.F.F.F.D.t.m o                                       X             V F - O f K .. . . . . . . . . . . ... . . . . .] l 6 o b t.D.F.F.F.P.E.+.X ",
"  +.E.P.F.F.F.D.t.m o                                                     $ N + o o @ @ o # o O # @ O o o # o @ @ o O O O o O o o b t.D.F.F.F.P.E.X.X ",
"  { P.H.F.F.F.D.t.b o 3 e x M M J J J J J J J J J J J J ) J J J J J r 6 . * N +             .           .       X X X X         O b t.D.F.F.F.H.K.' @ ",
"  M S.D.F.F.F.c.t.b o e [ <.<.1.5.5.5.5.5.5.5.5.5.5.5.5.5.5.5.5.5.5.] J o * N +     O 1 1 1 3 1 6 1 3 6 6 6 6 1 3 1 1 3 3 1 X   o b t.C.D.F.F.F.Z.M X ",
"  x k.c.S.S.c.j.q.m o a O.<.<.2.5.5.5.5.5.5.5.5.5.5.5.5.5.5.5.5.5.5.5.J o = N +     6 L g L g h g g z z g v g g z z v g g e O   o m q.j.C.D.D.C.j.x   ",
"X i q.q.w.w.w.q.U h o 0 n -.<.<.5.5.5.5.5.5.5.5.5.5.5.5.5.5.5.5.5.5.L r o * N %     1 q g h g g z z z z g g z g z z g g r 6 o   o h U q.q.q.w.q.0.e   ",
"  2 e w 0 e e w 0 2 X O 2 6 t t 8 y 8 y 8 y 8 8 8 t 8 y 8 y 8 y y 8 6 O X + % .     o O 1 1 1 1 1 1 3 1 1 3 3 1 3 1 2 3 O o X   X 1 0 q q e e w e # X ",
"    X X             X X     X X         X   X           X X               X         X   X X X   X X X X                             X X         X X   ",
"    X X                                                                                                                                               "
};
