/* XPM */
static char *bfff7e0cf2234fd49d616926116533e4lLkb87dG26IP4geu[] = {
/* columns rows colors chars-per-pixel */
"75 75 180 2 ",
"   c None",
".  c #513E56",
"X  c #61415A",
"o  c #5B4E60",
"O  c #5D5161",
"+  c #664C61",
"@  c #655564",
"#  c #6A5565",
"$  c #675865",
"%  c #6D5967",
"&  c #6E5C6B",
"*  c #735566",
"=  c #795567",
"-  c #705A67",
";  c #745468",
":  c #7C5668",
">  c #745D6B",
",  c #7B5D6B",
"<  c #76606F",
"1  c #7D626D",
"2  c #7E6773",
"3  c #7E6971",
"4  c #815265",
"5  c #815E6C",
"6  c #895C6C",
"7  c #995B6D",
"8  c #83626E",
"9  c #8B626F",
"0  c #92606D",
"q  c #846770",
"w  c #8C6471",
"e  c #866A72",
"r  c #8C6C74",
"t  c #946673",
"y  c #9A6574",
"u  c #946C75",
"i  c #9D6A76",
"p  c #8C7176",
"a  c #8C757A",
"s  c #8E7A7D",
"d  c #917176",
"f  c #9A7277",
"g  c #957479",
"h  c #9A757A",
"j  c #957C7E",
"k  c #9D797C",
"l  c #A26B77",
"z  c #A96A77",
"x  c #A46C79",
"c  c #AA6D79",
"v  c #B16F7B",
"b  c #A4757B",
"n  c #AE717C",
"m  c #A37C7E",
"M  c #AA7B7F",
"N  c #B2737D",
"B  c #B1787F",
"V  c #907D81",
"C  c #9D7F80",
"Z  c #A57F80",
"A  c #AB7D81",
"S  c #B57780",
"D  c #B47B81",
"F  c #B87F84",
"G  c #948384",
"H  c #9C8383",
"J  c #9C8B8B",
"K  c #A68182",
"L  c #AC8484",
"P  c #A48A87",
"I  c #AC8887",
"U  c #A48D8A",
"Y  c #AC8E8B",
"T  c #B38485",
"R  c #B98486",
"E  c #BA8587",
"W  c #BA8687",
"Q  c #BD8587",
"!  c #BC8687",
"~  c #B98486",
"^  c #B38887",
"/  c #B88987",
"(  c #BB8688",
")  c #BD8588",
"_  c #BB8688",
"`  c #B58B89",
"'  c #B98B8A",
"]  c #BB8A8A",
"[  c #BD898A",
"{  c #BD8D8B",
"}  c #BF8F8D",
"|  c #BC8C8A",
" . c #AC918D",
".. c #B2928E",
"X. c #BD918E",
"o. c #A29493",
"O. c #AB9590",
"+. c #A99894",
"@. c #AB9D99",
"#. c #B39791",
"$. c #BC9591",
"%. c #B59993",
"&. c #BC9B94",
"*. c #BE9F99",
"=. c #BDA097",
"-. c #B6A09A",
";. c #BEA79F",
":. c #B3A6A1",
">. c #B3A8A2",
",. c #BCABA4",
"<. c #BFB2AA",
"1. c #C3878A",
"2. c #C08B8B",
"3. c #C18D8C",
"4. c #C0908D",
"5. c #C1918E",
"6. c #C1928F",
"7. c #C1938F",
"8. c #C3938F",
"9. c #C2918E",
"0. c #C2928F",
"q. c #C19390",
"w. c #C29590",
"e. c #C39792",
"r. c #C19490",
"t. c #C49591",
"y. c #C79591",
"u. c #C49691",
"i. c #C59792",
"p. c #C79792",
"a. c #C49591",
"s. c #C89792",
"d. c #C59893",
"f. c #C69993",
"g. c #C49A94",
"h. c #C59994",
"j. c #C99893",
"k. c #C99993",
"l. c #CA9893",
"z. c #C99994",
"x. c #CA9994",
"c. c #CA9A95",
"v. c #CF9A95",
"b. c #CD9B96",
"n. c #CC9894",
"m. c #CB9C96",
"M. c #CF9C96",
"N. c #CA9994",
"B. c #C79F98",
"V. c #C69F98",
"C. c #CB9E98",
"Z. c #D09A96",
"A. c #D49F99",
"S. c #C7A099",
"D. c #C4A49B",
"F. c #C9A39B",
"G. c #CEA29A",
"H. c #CAA79E",
"J. c #CFA59D",
"K. c #CCA39B",
"L. c #CBA89E",
"P. c #CDA99F",
"I. c #D1A69E",
"U. c #D0A89F",
"Y. c #C3ADA5",
"T. c #CDACA1",
"R. c #CEABA1",
"E. c #D3AEA3",
"W. c #D2ACA3",
"Q. c #C6B0A7",
"!. c #CAB1A7",
"~. c #C3B3AB",
"^. c #CAB5AB",
"/. c #CAB8AF",
"(. c #D2B1A7",
"). c #D5B5AB",
"_. c #D7B9AF",
"`. c #CDBBB2",
"'. c #D5BDB3",
"]. c #D8BEB3",
/* pixels */
"  < % % % % % % % % % % % % % - % % % % % % % % % % % % % % % % % % % % % % % - % % % % % % % % % % % % & % - % - % % % % % % % % % % % % - % % % % % ",
"  > - % % % % % % % % % - % % & % % % % % % % % % % - % % % % % % % % % - % % % % % % % - % % % % % % % % % % % % % % % % % % % % % - % % % % % % - % ",
"  > % % % % % % % % % % % % % % % % % % % % % % % % % % % % % % % % % % % % % % % % % % % % % % % % % - - % % % - % $ % % & % % % % $ % % % $ % - % - ",
"  < % - % 8 x c c c x x x c x c c c x c n x c i - - i n c c x c c x c b x c x c c x c c c x x n b y % > t c i c c c c c c x c x x c c c c n i % % % % ",
"  2 % - $ y S c c n c n n c n v n c N c N c n N , , N n c n c c c c S c c v n c c n c c N c n c c N % , w x i c c c n c c c N c n n n c N c v , % % - ",
"  > % - $ w c n N n N n n N N n n n N n n n N c > > c N n N S c v S c c S c c S N n N N N n N n v l @ q N v N c S n N n n n v S n n n N n n x - % % % ",
"  < % % % % , 8 5 5 8 8 , < , 5 5 5 5 q 5 8 5 , > > , 8 5 q , 8 8 8 8 8 , , , w 5 8 8 5 5 5 5 8 8 , > > , q , q , , 8 5 5 1 , , , 8 8 1 5 5 > % % % % ",
"  > % - $ w x c n c z c t O y n c z x z z x z x z z c z z c z z z z z z x , 9 x x z x c z x z x z z c z z z z z c z z c c x 5 @ y z z c c n l - % % % ",
"  < % - @ t N n n n R ~ t @ n n n R R ~ R ~ ~ R R R ~ ~ ~ ~ ~ ~ ~ ~ ~ ~ 1.t l Q W W W ~ W R R ~ R R R R ~ ~ R ( ~ ( ~ F c S t @ D ( D v c v N > % % % ",
"  < - - @ t N n c W p.l.k + i c R p.q.p.p.w.p.w.w.w.p.f.p.f.X.8.} q.) $.p % L f.7.8.p.p.p.p.w.p.w.s.w.p.p.p.$.D 5.] } S c q , # ' h.8.M c c n > % % % ",
"  < % - @ i N c z | w.p.m o , w F ( w.~ $.w.8.8.q.q.3.F.w.w.T.w.R.B.} q.{ u < h ] R 7.8.8.X.8.8.q.q.q.3.F.g.F.T.e.R.V.} n l , % q k 1.i c y c , % % % ",
"  > % - @ w N N c ) x.n.h @ c N ) x.E.G.I.x.l.l.x.x.l.h.x.x.l.x.j.j.j.j.b.g M b.f.l.l.l.x.p.l.x.x.j.j.p.l.l.l.x.j.j.j.t.S S t @ 2.n.y.S N N c - % % % ",
"  < % - @ % 8 8 8 8 r r ; @ > 5 5 u r r r p d u d g u u p u p p r u u p r * = u d p r d d d r d r d g d r d p d d r d e 5 , # # 5 d e 5 5 w , # % % % ",
"  < % - i c x l l n ` D.e.' / *.`./.&.$.D.` ` A # # A ` ` &.$.D.^.`.Y.` D.g.` ` ` / / ` ` ` / ` ` b o 5 T / $.$.&.`.Q.=.$.D.&.( ` ` T x l l x x 8 % % ",
"  , % > N c N N c 2.l.p.p.p.p.p.p.p.p.p.l.p.w.x.q q j.x.m.f.x.f.h.s.s.s.p.p.p.p.p.p.p.p.p.p.p.p.p.y.# k n.p.p.p.l.s.s.s.y.p.p.y.p.p.j.S v N n S i @ % ",
"  > % > N c c n z | w.8.8.8.8.8.8.q.8.p.q.p.p.y.8 + L L f 3.D } R w.$.q.q.w.q.q.8.w.q.q.q.q.q.q.q.q.@ h l.q.q.q.q.q.q.q.q.q.y.q.q.q.y.M l x x t 5 % % ",
"  < % > n c N n z | p.8.8.8.q.q.q.R } N } g q e - > / ` &.S.$.h.] w.8.q.8.8.q.q.q.q.8.8.q.w.q.q.q.q.@ h x.8.8.8.8.8.8.8.8.8.8.8.8.8.w.M z z c l w # % ",
"  < % > c N N N v | x.l.l.p.s.s.j.y.C.C.J.R.q.p.1 e n.b.b.m.m.x.x.x.x.x.x.x.x.x.x.j.j.j.x.x.x.x.n.y.# h n.l.x.x.x.x.x.l.l.l.l.f.x.x.l.D N N N B i @ - ",
"  > % % w y t w w t k k m Z C Z k k k k f k k i + X 7 k h k k k k k k k k Z Z h k k h k k f f h b w o * f k k k k k k k Z C Z Z k k f w t w t t , % % ",
"  < % - @ - t i y i Z m = o 5 0 i Z Z Y %.I  .K I <.<.-...K L K K K K K A = 5 A Z ` I #.#.,.,.#.%.L L L K Z L Z Z Z L h 0 0 # o t I b y y y w @ % % % ",
"  < % - @ t B N v 1.m.A.Z @ n v | l.l.x.m.x.m.f.l.G.K.C.n.8.8.l.l.3.l.{ y.u L x.s.x.x.C.m.K.K.b.F.l.p.l.l.l.l.f.s.x.s.s.S S t @ 8.x.l.D N N N > % % % ",
"  < % - @ t c c i ( L Z r @ x v ( f.w.7.8.7.8.q.8.3.8.X.8.D B } 8.$.x.H r - ^ p.$.q.8.8.q.X.5.q.8.7.8.8.8.8.8.w.e.e.q.s.S v w $ X.8.q.N c c c > % % % ",
"  > % & @ t x n y ( L h 8 # > t F | } | 8.8.q.q.q.q.w.q.w.w.w.8.w.J.p.F.b.f L f.8.q.q.q.w.w.q.q.7.q.q.q.8.8.q.] S T ] { d 5 - % } 8.y.B c c c , % % % ",
"  < % % $ y S N v | n.A.m @ x c Q l.J.m.(.x.p.l.p.p.l.p.l.p.f.p.x.8.p.p.b.h L n.p.p.l.l.s.s.x.j.l.f.p.p.p.p.G.m.F.J.B.m.n x w % 8.l.l.B N N N > % % % ",
"  > - - @ > y i y x L Z : O 5 7 y L L L L L L L / / L L L L K L A L L L A = 6 T L L I L L L L L I T ^ ^ L L L L A A L A y y * o y I m i i i w # % % % ",
"  < % % 8 t w w w w g h k k k +.+.h f H U h h r @ + w k h k U P U H g H h k k h h h g h h h h g h w o * u h g H @.@.C g P h k k k h u 9 e 9 9 t > % % ",
"  < % > N N N S N ) x.x.p.l.l.W.W.x.l.m.G.x.l.l.1 8 l.x.l.x.I.G.J.G.p.G.x.l.h.x.x.j.p.l.p.y.j.h.x.3.@ f n.n.p.b.E.E.C.l.G.x.l.l.x.x.l.D v N N N i @ - ",
"  > % > l x c c l R 8.} 8.8.8.3.3.X.8.8.8.8.X.f.q 8 f.7.8.8.4.8.8.3.8.8.X.8.8.$.w.R X.D T T D s.Z 1 @ k x.q.8.8.} { 8.q.X.w.X.8.q.3.y.N c c v N i @ - ",
"  > % - 5 i x x y n 3.W w.q.w.q.7.p.7.7.p.7.8.p.3 1 f.8.7.8.7.8.7.8.w.w.w.q.q.y.w.w.F.h.R.P.w.w.p.| @ f x.w.q.q.w.w.w.w.q.q.y.8.q.q.p.M c c n n i @ % ",
"  2 % , N N N N c } h.h.w.p.w.p.7.p.p.f.p.f.f.x.q q m.7.p.f.p.f.p.p.p.e.p.y.q.p.w.f.y.p.8.q.p.f.p.p.@ h x.w.p.p.p.p.p.w.p.y.p.w.p.w.p.S N n n N i @ - ",
"  < % - i c x x x M | { } X.X.{ ' ' ' ' / T / D % * B X.' ' ' ' ' ' ' { ' X.} ' ` ' { ' ] ` ` ` X.n O 5 ` { { ` ' { ' { { } } } { X.R c x x x c w % % ",
"  > % % % - 5 5 5 5 r w ; $ , 5 8 r d j J J J G p p j j r r p r r r r r e * , r r g a j j j j r r r u r r r r r r r p 8 8 , % # 5 r e 5 8 5 > % % - % ",
"  < % - % w S S c ~ s.j.f @ x v ~ l.m.U.(._._.(.l.x.W.U.x.l.p.f.m.l.l.l.n.f m n.p.G.x.J.R.U.J.p.p.l.p.f.p.f.l.l.l.l.j.p.N N w # ( x.y.S c N c - % % % ",
"  < % - @ t c c z ] w.s.Z O n z W 7.8.8.3.{ [ { 7.8.{ 3.8.X.p.F R ] ] X.r > T p.8.8.8.} 3.} 8.8.8.8.8.8.8.w.] ] T R | D n , , $ w.w.w.D c c v > $ - - ",
"  < % % @ t c c c | w.s.k O n c W p.p.7.8.8.f.p.w.p.8.w.w.8.F.h.L.F.8.w.} 9 I p.8.w.8.8.w.p.8.8.8.p.q.p.p.w.3.F.w.F.F.3.N x , % L { X.n c c n > % - % ",
"  < % % @ y S S z { w.x.C + n c / p.7.p.8.8.7.7.7.8.p.q.q.q.8.8.8.7.7.8.b.k L l.8.8.w.p.w.w.8.w.8.q.8.8.7.8.p.8.q.y.w.h.M N y @ r L } x c x N > % % % ",
"  < % - $ 9 c c c F y.3.y O y x B 8.8.8.7.7.8.u.p.w.7.p.w.q.w.8.8.8.8.8.8.w b y.q.p.8.q.p.q.8.p.q.p.p.8.8.y.$.q.8.8.8.| N c 5 @ ~ x.} N c N l % $ - % ",
"  < % % - , 1 , 5 5 e e , 3 e s a s p r p r r 8 1 1 8 e e r r a s j a e p 1 , e e e e e e e e e e 8 1 , q e r r r s j a 8 r 1 < 8 e 8 , , 5 , > - % % ",
"  < % - x n n n c F y.q.p.F.E.'.'.'.R.B.F.f.7.| > , 2.7.p.F.B.R._.'.!.p.R.F.8.p.p.8.p.7.8.8.w.q.p.T @ 9 3.8.B.m.S.'.'.(.f.R.F.8.y.q.} N c N n n w # % ",
"  > % , n n n n z ) p.q.w.3.8.3.2.{ 8.8.8.8.8.m.q 8 x.7.8.8.8.8.3.{ 3.p.3.8.7.8.8.w.8.7.p.q.w.p.w.f.@ k x.w.8.8.8.{ { 3.8.3.8.p.q.q.p.D c n c N l @ - ",
"  < % > c n n n z | p.q.q.y.w.w.8.p.8.8.} 3.X.[ , 8 f.8.8.8.q.w.p.w.w.8.w.p.w.8.w.q.p.3.3.8.3.' } R @ h f.8.w.7.w.p.p.w.w.w.q.p.q.w.p.N y l n w , % - ",
"  < # , N c n n z | y.8.8.8.q.q.7.} W } D &.q r % e f.8.8.8.8.8.8.8.8.8.7.7.8.8.8.q.3.M } | $.a q e @ k l.8.8.8.8.8.8.q.8.8.8.8.8.8.w.M c c c c i @ - ",
"  < % > c N n N c ) x.h.p.j.s.x.l.f.G.G.I.U.b.l.1 , y.h.p.f.l.f.l.x.l.f.l.l.f.l.x.x.j.j.I.b.U.I.n.3.@ u l.p.l.l.p.l.p.x.l.f.p.l.l.l.p.N N S c N t $ - ",
"  > % % , 8 8 5 8 5 r r r r r r r r e r r r r 8 % # w r r r r r r r r e e r r p r r r r r r e e r 5 # = e r r e r r r e r r r r r r q 8 8 5 5 w - % % ",
"  < & % @ 5 x x x S ` R 6 o t l n ` X.!.'./.e.S.w.{ X.{ ' X.X.' { X.' $.3.9 t ' ] g.X.D.D.^.'.^.D.$.} X.' ' X.X.' ] $.T c x : @ b } R x x b y # % % % ",
"  < % - @ t N n c { s.x.Z @ c c | p.p.8.8.8.p.w.p.w.w.w.w.W ~ p.8.] f.A L e T l.w.w.p.p.q.p.8.y.p.p.p.w.p.8.W ~ 8.p.F 8.h y 8 # 8.p.p.S c n n , % % % ",
"  > % - $ t N n z ) p.p.f @ n c / p.w.p.7.p.7.7.w.q.q.w.8.} X.} w.S.m. .b , L p.w.w.w.q.q.w.q.w.w.q.8.q.w.F.{ g.F.e.g.e.i 9 > % } q.p.D c v n > % % % ",
"  2 % % @ t N c t b } e > # n z W w.7.7.7.7.7.7.8.8.8.8.q.w.h.q.w.B.w.h.G.h I p.q.q.8.8.8.8.8.8.8.8.8.8.q.g.g.B.h.w.F.h.N N t @ X.8.w.N c n n > % % % ",
"  < % - @ t N N c 1.h.x.k @ c N ) x.x.f.x.x.x.x.l.x.x.x.h.l.l.x.x.l.j.p.n.f A b.x.h.x.x.x.f.x.x.x.f.f.l.x.h.l.f.f.l.f.p.B N w # 3.b.p.D N N N > % % % ",
"  > % % # % 9 w 9 w h f ; o ; 6 6 u h h h h h h k k h h h g g u u g h h g * : h h h h h h h h h h h k k h h h f u u h t 6 6 @ @ 6 k u w 9 9 , @ % % % ",
"  < - - t l i i i l L L L &.&.;.^.~.#.` Y L L b # # b I L ` *.,.~...L #.L ` L L I I T L L I L L I x o = A L I ,.^.<...L &.%.T ^ L L M l i y i l 5 % * ",
"  > % > N N n N v 3.m.l.j.x.x.x.C.F.h.p.x.p.f.n.8 8 n.f.f.x.h.m.m.x.s.x.s.p.p.l.l.3.8.3.2.3.8.x.X.` # k n.p.l.m.F.m.x.p.x.l.p.p.p.p.l.B N N N N i @ % ",
"  < % - t i n c i A 8.( w.8.8.3.8.8.8.8.8.q.q.s.1 q p.8.8.8.8.8.8.8.q.8.8.q.q.8.w.W g.R X.X.R f.L 9 @ h p.8.8.8.X.8.8.w.w.8.q.q.8.8.7.M c n c n i @ - ",
"  < % > t l n n i D 3.| p.q.q.q.w.7.8.8.8.8.8.p.q 1 f.8.8.8.8.q.q.q.8.8.8.8.8.8.8.w.B.h.G.F.e.X.p.y.@ h l.X.8.8.q.q.8.8.q.8.8.8.8.8.e.B c n n N i @ - ",
"  2 # > N N v N v 1.x.x.p.s.j.j.f.l.l.x.h.x.l.n.q 8 l.f.p.l.l.l.l.p.f.l.l.p.p.l.l.x.p.l.p.p.l.f.p.p.# h n.p.l.f.l.l.l.p.l.x.p.p.p.l.l.B n N N N i @ - ",
"  > % % w i y y y i Z Z I L L L L K m b b m A h + @ i K Z K Z K Z L Z K Z I L K K m K b b b m K K t o = m K Z A L Z K K L L L L L K m y y t y i , $ - ",
"  < % % @ - w t w t k h = o : 9 t f P :.:. .k k  .K +.K k k k k k k k k k * : k k P m +.:.:. .h k k Z m k k k k h k k u 0 6 % o 9 m f t w t 5 # % % % ",
"  < - % # t N N c ) j.s.h @ v S 2.x.m.E.W.F.x.l.m.l.F.m.l.x.x.p.y.l.l.x.l.f L n.p.m.m.G.W.W.G.l.x.l.f.l.x.x.x.x.x.x.l.p.D N t # { f.p.S c N c > % % % ",
"  < % & @ y N x t S ] e > % i y T } W W | 3.8.q.8.8.3.8.8.8.p.D ] } ( X.e % R x.f.8.w.7.3.3.8.8.8.8.8.8.8.8.8.8.8.8.8.w.M n t @ 8 8 Y n l l N , $ - % ",
"  > % & @ t N n c { e.s.k + w 5 T Q &.S.3.F.B.8.w.w.8.p.q.q.q.w.J.F.q.q.l.h 5 k h ` ] R ( { 8.8.w.w.p.q.w.q.q.w.w.q.q.p.N n t @ | h.p.N c N c > % % % ",
"  < % - @ y S n c ) p.x.m @ N N { m.F.G.h.F.m.p.p.f.p.p.p.w.p.f.8.8.f.w.n.k h T L { 3.F.R.B.P.s.p.p.p.y.p.w.f.f.p.f.p.l.S S t @ 8.p.p.S c N N > % % % ",
"  < % - @ , i x l b ` T 4 . 6 y x T ^ T ` T ` ` ' ' ` / ` ` ^ T T T T ` R : y { X./ ` X...` ` ` ` ` ' ' ` / T ` T D T M l 7 ; O b ` L l l l t # % % % ",
"  > % - , w 9 8 w 5 u H J o.H k j h u p d p d 9 # # 8 d g j j H o.o.J d H k p p p p d r t p r u d 5 @ * r d j g o.o.o.J d H k d d d w 6 8 9 9 9 > % % ",
"  > % > c N N N v ) x.I.(.).W.G.F.m.l.l.l.l.l.y.1 8 l.x.b.G.b.U.(._.W.x.P.F.f.x.l.l.l.l.x.l.x.x.x.3.@ f l.m.G.m.).(._.E.x.R.G.h.x.x.p.B N N N N t $ - ",
"  2 % > c n c n z ] w.3.} | 3.8.8.8.w.p.8.p.p.n.q , / 8.{ { { | | | 3.8.3.8.8.X.8.8.X.8.7.7.7.7.8.u.@ k u.X.8.4.| | 2.{ 8.3.8.8.8.8.w.D c x c n y @ & ",
"  > % , n c n n c ) p.w.q.y.w.q.7.{ } ~ { L L m , % 8 ` | { { f.p.q.w.8.7.8.p.7.7.p.w.w.8.8.u.8.u.7.@ g l.7.8.8.p.w.8.p.8.8.w.q.q.8.w.B x y x w , % % ",
"  > % > n n n n z { y.y.q.p.8.8.w.W w.] B. .h k < 8 n.8.J.F.m.P.w.y.q.p.p.y.8.p.p.w.8.p.8.u.u.8.8.u.@ k m.7.8.u.p.q.q.y.p.8.p.w.q.q.p.N c n n N l @ - ",
"  < % - l n n c x S } $.w.q.8.8.8.w.w.e.w.m.f.3.- - Q 7.] } } { 8.X.8.q.X.w.q.X.X.} 8.{ 3.{ 4.4.u.D @ 9 { 7.8.7.} q.5.$.8.X.8.8.8.8.] n n c n c w $ - ",
"  < % % % > , 5 , q r q > > > w e e e s G p p 8 1 8 8 p a r p e e q w e q > , e q p r s G G a p e 8 8 8 8 e e e e e e w 8 , > > 1 e r 8 5 8 , - % % % ",
"  < % - @ w c N N ) x.n.f O l c ~ p.x.).].T.F.p.m.m.f.J.P.G.F.p.j.s.h.x.n.y b n.p.J.b.E.'.'.(.G.u.m.m.l.m.f.l.l.j.j.j.9.B N w @ ~ m.w.N c N x - % % % ",
"  < % - @ y N c t c d d e # c c c F D N N B D F T D F B B D B T D C D d g 1 A D D B F B N n B B D T B T F B D T A A b D w 5 , % D T S c c c n , % % % ",
"  < % % @ t N N c v x x 9 @ c S N c c N n n c v v c v c v v v c v c z x x 8 y v c N c c n N c N v c v c c v v c c c c c c c q @ z v c N N N c > % % % ",
"  > % - % , y i i i x i 2 # w i i i x i i i l i i i i l i i h l i b i x f , 2 i i i x i i i l h i i l i i i l f l i b i x i , % w i i i i x w % % % % ",
"  2 < < < < & & & & & & < < & & & & & & & & & & & & & & & & & & & & & & & > > & & & & & & & & & & & & & & & & & & & & & & & > < > & & & & & < < < < < ",
"                                                                                                                                                      "
};
