/* XPM */
static char *c8c79c96da944d99aa67313be54a3ef5hylhyJTpHKB0NmOZ[] = {
/* columns rows colors chars-per-pixel */
"75 75 244 2 ",
"   c None",
".  c #190636",
"X  c #1D1C36",
"o  c #04022D",
"O  c #310D3A",
"+  c #100018",
"@  c #58213B",
"#  c #020749",
"$  c #110D4A",
"%  c #13144C",
"&  c #111452",
"*  c #070F51",
"=  c #3A0446",
"-  c #281946",
";  c #3C1A48",
":  c #331B54",
">  c #142854",
",  c #133655",
"<  c #0C2C4F",
"1  c #29264C",
"2  c #3C234C",
"3  c #3A2849",
"4  c #3E324D",
"5  c #372952",
"6  c #253A56",
"7  c #3E3651",
"8  c #363D56",
"9  c #3D3A54",
"0  c #383657",
"q  c #282253",
"w  c #363A62",
"e  c #103760",
"r  c #401A47",
"t  c #431B53",
"y  c #422D4D",
"u  c #43254A",
"i  c #41324D",
"p  c #433A4E",
"a  c #412753",
"s  c #413553",
"d  c #433B55",
"f  c #473B58",
"g  c #503D5E",
"h  c #693B50",
"j  c #3D4259",
"k  c #3D4B5D",
"l  c #364559",
"z  c #375755",
"x  c #3B4D61",
"c  c #374864",
"v  c #2D586A",
"b  c #395568",
"n  c #355C74",
"m  c #365A72",
"M  c #275F77",
"N  c #166575",
"B  c #1A7374",
"V  c #106666",
"C  c #3B666C",
"Z  c #2A687B",
"A  c #31657B",
"S  c #316B7B",
"D  c #396A76",
"F  c #2A727E",
"G  c #37787A",
"H  c #3F7665",
"J  c #1A725D",
"K  c #43435B",
"L  c #4C475D",
"P  c #464759",
"I  c #415D5B",
"U  c #44565B",
"Y  c #5A595A",
"T  c #554859",
"R  c #6A4954",
"E  c #6C5759",
"W  c #715A5C",
"Q  c #43675E",
"!  c #43745F",
"~  c #77635C",
"^  c #484963",
"/  c #534D62",
"(  c #564B6A",
")  c #56586B",
"_  c #4B576C",
"`  c #476868",
"'  c #487869",
"]  c #587B65",
"[  c #476379",
"{  c #58647A",
"}  c #537772",
"|  c #6A6669",
" . c #756966",
".. c #636778",
"X. c #76737D",
"o. c #746C76",
"O. c #A1393F",
"+. c #CF463E",
"@. c #A83645",
"#. c #872F46",
"$. c #AE4F49",
"%. c #956F55",
"&. c #AE7057",
"*. c #8A635B",
"=. c #C7504A",
"-. c #E95A42",
";. c #CD6F54",
":. c #F17950",
">. c #378C79",
",. c #2FA87C",
"<. c #46846D",
"1. c #458673",
"2. c #598B74",
"3. c #4E9274",
"4. c #679473",
"5. c #648B6C",
"6. c #47A67B",
"7. c #4AAE7E",
"8. c #69A37A",
"9. c #AD865C",
"0. c #B0835A",
"q. c #AC8564",
"w. c #B38C66",
"e. c #B49872",
"r. c #AB956D",
"t. c #A29375",
"y. c #F38556",
"u. c #ED8D5D",
"i. c #C69B6D",
"p. c #D28A62",
"a. c #E49362",
"s. c #F49D65",
"d. c #D8A36E",
"f. c #DAAD74",
"g. c #DEB277",
"h. c #C2A57C",
"j. c #F7A369",
"k. c #E7B678",
"l. c #F8BA77",
"z. c #E8AB70",
"x. c #DD875C",
"c. c #F6C37E",
"v. c #297886",
"b. c #337A85",
"n. c #327283",
"m. c #2C6D80",
"M. c #576C82",
"N. c #5A788A",
"B. c #50738A",
"V. c #68798A",
"C. c #797C86",
"Z. c #68768B",
"A. c #867C8B",
"S. c #22838B",
"D. c #2B868D",
"F. c #298A8E",
"G. c #388886",
"H. c #28928D",
"J. c #399589",
"K. c #2A8C91",
"L. c #268A93",
"P. c #2C9392",
"I. c #2C9B9A",
"U. c #329C95",
"Y. c #399D93",
"T. c #308F91",
"R. c #38A98C",
"E. c #3EB588",
"W. c #39AC93",
"Q. c #36A898",
"!. c #3DB494",
"~. c #3CB399",
"^. c #3EBA98",
"/. c #2FA791",
"(. c #39B8A3",
"). c #1F8089",
"_. c #479682",
"`. c #5B8684",
"'. c #688795",
"]. c #798B97",
"[. c #798E92",
"{. c #44BC8C",
"}. c #45B585",
"|. c #41BC93",
" X c #40B998",
".X c #4CB085",
"XX c #64B185",
"oX c #7993A1",
"OX c #3EC39F",
"+X c #45C28C",
"@X c #49C68A",
"#X c #4BCA8C",
"$X c #44CA8D",
"%X c #45C392",
"&X c #45C796",
"*X c #5ACD8E",
"=X c #77C489",
"-X c #67D792",
";X c #72DC95",
":X c #6FCA8C",
">X c #79E197",
",X c #8B8B95",
"<X c #94949B",
"1X c #8D9A96",
"2X c #BDAF85",
"3X c #8599A4",
"4X c #9B9DA3",
"5X c #95A9AC",
"6X c #99ABB5",
"7X c #90A9B2",
"8X c #A5A7AC",
"9X c #A6B5B9",
"0X c #AAB0B6",
"qX c #8AA095",
"wX c #DAB780",
"eX c #87D993",
"rX c #85D38F",
"tX c #89E79A",
"yX c #92E298",
"uX c #D6C994",
"iX c #CFC492",
"pX c #E8C789",
"aX c #F3C986",
"sX c #E8D699",
"dX c #ECD595",
"fX c #FAE59F",
"gX c #FAEAA4",
"hX c #FFF8AD",
"jX c #EDE1A1",
"kX c #9FBAC1",
"lX c #BBC6C8",
"zX c #B0C9CC",
"xX c #C3C8C9",
"cX c #CAD7DA",
"vX c #D4D9D9",
"bX c #CCCED0",
"nX c #DAE5E4",
"mX c #CEE7E2",
"MX c #E4EAE9",
"NX c #E9F7F3",
"BX c #F6FCFA",
"VX c #F7FCFA",
"CX c #EBF0EF",
"ZX c #D0E0DF",
/* pixels */
"                                                                                                                                                      ",
"                                                                                                                                                      ",
"                                                                                                                                                      ",
"                                                                                                                                                      ",
"                                                                                                                                                      ",
"                                                                                                                                                      ",
"                                                                                                                                                      ",
"                                                                                                                                                      ",
"                                                                                                                                                      ",
"                                                                                                                                                      ",
"                                                                                                                                                      ",
"                                                                                                                                                      ",
"                                                                                                                                                      ",
"                                                                                                                                                      ",
"                                                  & & $     $ $ $ & $ > > <       & & > , , ,                                                         ",
"                                                E W  . .    |  .~ E E W R R       W W E R h h                                                         ",
"                                              1 9.i.pXiX .Y 2XdXk.f.f.a.;.$.5 # W i.d.x.;.+.@.p                                                       ",
"                                              1 q.c.fXjXX.Y uXgXaXk.pXj.s.&.5 # ~ f.l.s.:.-.$.d                                                       ",
"                                              q h.fXhXjX .U uXgXwXi.i.j.j.p.q #  .k.l.j.:.:.=.L <                                                     ",
"                                              1 h.gXhXjX| U uXsX%.- T i.k.e.1 $ W f.l.s.y.:.;.f                                                       ",
"                                              1 h.gXhXfXr.q.sXfX<XR *.f.c.g.%.*.&.k.l.j.y.:.;.f                                                       ",
"                                              1 i.c.gXhXpXc.fXgXaXz.k.c.c.c.k.a.a.l.l.s.y.-.=.p                                                       ",
"                                              % %.d.pXsXwXk.pXuXk.k.k.g.f.f.z.x.x.d.d.x.;.+.@.s                                                       ",
"                                              + h %.r.h.w.w.r.r.9.w.w.9.9.0.0.&.&.q.q.&.$.O.#.s                                                       ",
"                                              / / / f 5 j P / / U j 0 8 K K L K f 0 0 8 8 j 0 w K                                                     ",
"                                            ,X0XxX0X{ < B.oX6X8XoX[ > [ '.oX'.N.m > e m B.A M.M._                                                     ",
"                                          3 <XMXBXCX<X^ 7XzXnXMXzX[.L [.6XzXkX7XZ.^ ) V.'.Z.N.N.{ 4                                                   ",
"                                          5 ,XxXvXbXA.f ].6XlXlX9XV.f C.3X7X7X].M.f / M.Z.M.B.M._ 4                                                   ",
"                                          f ) X.[.o./ i / | o.o...L i L ) | ) / P i s P L L P K ^ 7                                                   ",
"                                          7 1 . o . 6 x l 6 < < 6 l x l l , 6 l l k k l l 8 0 4 s d                                                   ",
"                                            1 X > e M m.m.B N N N Z b.F Z N Z Z F v.b.Z Z v c 7 d d                                                   ",
"                                              y m m.L.P.L.F.L.P.P.H.D.L.P.P.P.P.P.S.S.P.L.v.v d i d                                                   ",
"                                            + 2 D T.W.R.G S H.Q.!.J.G D.U.Q.E. XR.V B /.R.L.A d 4                                                     ",
"                                          / g y G Q.&X}.Q 9 G.!.+X3.j b.Q. X@X{..X` ' 7.{.H.n.9                                                       ",
"                                        [.<X,Xi B ~.OX}.k ; n J.6.! 2 G /.OX{.,.3.<X1XXX,.T.n.d                                                       ",
"                                      X <XvXlXa V Q.(.Q.l = 5 P z 4 = >.Q.OX/.V ] xXlX,XV D.b.d                                                       ",
"                                      X 4XBXMX8X`.H.H.J.2.5.] 5.Q ] 5.3.Y.H.G.N.8XCXvXA.> ).b.f                                                       ",
"                                      X 4XNXBXnX5Xv , ' rXrXrX8.7.XX;X8.H e ` 5XMXVXbXA.> ).b.d                                                       ",
"                                      X ,XnXVXVXlX( . L rXeXtX>X*X:X>X4.K . ..bXVXVXlXC., S.b.7                                                       ",
"                                      - ,XZXNXVXbX3X^ p ] 8.:X-X*X7.4.Y i ( 3XvXVXNX9Xo.> v.n.2                                                       ",
"                                      ; '.zXmXBXcX7X{ 2 y Q 6.#X#X6.U ; 4 { 6XnXNXmX5X..6 S.b.9                                                       ",
"                                        ..qX9XcXzX]./ 8 v G R.+X$XE.G 8 9 ) oXzXcX6X[.2.>.R._.3.Q                                                     ",
"                                          ( ].6X3X/ ; k G.W.|.+X#X!.Q.D K r ) 3X7XX.' 6.{.+X+X.X1.;                                                   ",
"                                        z J 1.'.{ ; O K G.J.6.6.6.6.J.C s O r { `.v >.E.#X%X%X#X.X' Q                                                 ",
"                                      t ' ,.6.} f 3 2 i U b I U z I b P i ; u s [ G.W.{.%X^. X@X@X6.<.y                                               ",
"                                      t <.@X7.j = 0 k x 8 d 0 0 0 9 0 j k k k 8 C Y. X+X}.Q.W.|.$X{.3.a                                               ",
"                                      a <.#X7.z : v A n.S D A A n A A A S S S F J.!.%X$X}.' G. XOX!._.a                                               ",
"                                      t ' }.6.z w Z D.D.K.L.K.K.K.K.K.K.L.K.P.U.W.E.$X#X7.z D Q.(./.B.0                                               ",
"                                        ` 1.<.P v v.S.L.I.I.W.R./.R.E./././.W.!.|.@X@X@X}.G D G G.G `                                                 ",
"                                          k f y D D.L.L.I.~.|.+X+X+X+X+X+X{.+X{.+X+X@X@X}.T.m.f d K j                                                 ",
"                                          = r a S K.Q.Q.!.|.+X*X;X-X#X-X;X>X-X*X@X@X+X%XW.K.m.a =                                                     ",
"                                            r u n.K.R.{.+X+X+X*X>X;X#X;XtXtXtX-X@X@X%X^.Q.v.n f r                                                     ",
"                                              y m G.E.+X+X{.}.*XeX:X@X=XeXyXeX:XE.}.{.~.I.A c 8                                                       ",
"                                                0 m .X#X&X~.J.] 5.2.<.5.4.4.4.2.>.J.U.I.T.b 0                                                         ",
"                                                  f 6.%X~.Y.C ; 2 2 a ; a 2 5 r c n.L.L.b.k u                                                         ",
"                                                  f _.^.G.D ^                   5 b n.v.Z K u                                                         ",
"                                                  f J.Q.[ y                       i x M n ^ i                                                         ",
"                                                  s b.J.x r                         8 m m 8 i                                                         ",
"                                                    U ^ K i                           j K f 0                                                         ",
"                                                    r a d 7                           p s f s                                                         ",
"                                                                                                                                                      ",
"                                                                                                                                                      ",
"                                                                                                                                                      ",
"                                                                                                                                                      ",
"                                                                                                                                                      ",
"                                                                                                                                                      ",
"                                                                                                                                                      ",
"                                                                                                                                                      ",
"                                                                                                                                                      ",
"                                                                                                                                                      ",
"                                                                                                                                                      ",
"                                                                                                                                                      ",
"                                                                                                                                                      ",
"                                                                                                                                                      ",
"                                                                                                                                                      "
};
