/* XPM */
static char *_0ab61fa15c0423ec1a581f6c6bba59fRWK9MWZdFa6FyZ0k[] = {
/* columns rows colors chars-per-pixel */
"75 75 224 2 ",
"   c None",
".  c #052E4F",
"X  c #00314E",
"o  c #15304F",
"O  c #002F50",
"+  c #003351",
"@  c #0C3350",
"#  c #1C3551",
"$  c #183650",
"%  c #112F4F",
"&  c #2E264C",
"*  c #3C2C4E",
"=  c #37274C",
"-  c #23314F",
";  c #29324F",
":  c #38354F",
">  c #2B2F51",
",  c #362F52",
"<  c #233451",
"1  c #2C3451",
"2  c #233951",
"3  c #2B3A51",
"4  c #343551",
"5  c #3C3551",
"6  c #343951",
"7  c #3F3851",
"8  c #442B4D",
"9  c #4B2C4D",
"0  c #44274C",
"q  c #532B4D",
"w  c #5B2E4D",
"e  c #4B334F",
"r  c #45324F",
"t  c #53344F",
"y  c #5D344E",
"u  c #423552",
"i  c #4C3553",
"p  c #433A51",
"a  c #4B3A52",
"s  c #553553",
"d  c #5B3553",
"f  c #533B53",
"g  c #5C3A52",
"h  c #432F51",
"j  c #63344E",
"k  c #6B344E",
"l  c #63384F",
"z  c #6C394F",
"x  c #733B4F",
"c  c #7C3C4F",
"v  c #76354E",
"b  c #6C3656",
"n  c #643B51",
"m  c #6B3B52",
"M  c #643656",
"N  c #733B51",
"B  c #7B3B53",
"V  c #763654",
"C  c #732A4D",
"Z  c #5B4254",
"A  c #644353",
"S  c #6D4453",
"D  c #6D4C5A",
"F  c #6A4857",
"G  c #744352",
"H  c #7B4353",
"J  c #744B56",
"K  c #7C4A55",
"L  c #744F58",
"P  c #7D4E58",
"I  c #7C535A",
"U  c #7F5057",
"Y  c #833C4E",
"T  c #8B3C4D",
"R  c #913C4D",
"E  c #833C53",
"W  c #8B3E53",
"Q  c #873A58",
"!  c #933D54",
"~  c #9B3E54",
"^  c #A83D58",
"/  c #B13F58",
"(  c #8C404F",
")  c #87404F",
"_  c #94424E",
"`  c #9D434E",
"'  c #844452",
"]  c #8B4351",
"[  c #834C56",
"{  c #8C4B54",
"}  c #814F58",
"|  c #944452",
" . c #9B4353",
".. c #944C54",
"X. c #9B4C54",
"o. c #994C59",
"O. c #845157",
"+. c #825359",
"@. c #88565A",
"#. c #925257",
"$. c #9B5356",
"%. c #945459",
"&. c #945A5B",
"*. c #9B5C5B",
"=. c #9C5658",
"-. c #A2444E",
";. c #AD424C",
":. c #B4424C",
">. c #BA474D",
",. c #BF4A4F",
"<. c #A24452",
"1. c #A84953",
"2. c #B44353",
"3. c #B94550",
"4. c #B34B52",
"5. c #A35356",
"6. c #AC5556",
"7. c #A45B5A",
"8. c #AB5C5A",
"9. c #A75758",
"0. c #B25C59",
"q. c #B85756",
"w. c #84635F",
"e. c #9F615D",
"r. c #A4615D",
"t. c #AC645E",
"y. c #AE685F",
"u. c #B4645D",
"i. c #BC635C",
"p. c #B4685F",
"a. c #BB685F",
"s. c #836461",
"d. c #856A63",
"f. c #886F64",
"g. c #87756B",
"h. c #88746A",
"j. c #87756A",
"k. c #887D71",
"l. c #AB6763",
"z. c #B36561",
"x. c #B36A61",
"c. c #BB6C61",
"v. c #B26D68",
"b. c #9F5E62",
"n. c #C45B56",
"m. c #C55654",
"M. c #C34E50",
"N. c #C3655C",
"B. c #CB645B",
"V. c #CC6B5E",
"C. c #C56A5E",
"Z. c #D36B5E",
"A. c #D4685C",
"S. c #C46F62",
"D. c #CD6D60",
"F. c #D36E60",
"G. c #D96C61",
"H. c #C67163",
"J. c #CC7363",
"K. c #C97769",
"L. c #D47463",
"P. c #DA7364",
"I. c #D77865",
"U. c #DA7966",
"Y. c #DC7C6C",
"T. c #D67769",
"R. c #E17B65",
"E. c #E57769",
"W. c #E67A6A",
"Q. c #E97968",
"!. c #898275",
"~. c #89867C",
"^. c #B88975",
"/. c #BD9B7E",
"(. c #BA937B",
"). c #DA8A73",
"_. c #CC826E",
"`. c #E6826E",
"'. c #EA826E",
"]. c #F1826E",
"[. c #E48B73",
"{. c #EA8872",
"}. c #E9987A",
"|. c #F39A7B",
" X c #F08C74",
".X c #D4A07E",
"XX c #ECA17F",
"oX c #F6A07E",
"OX c #888A82",
"+X c #8A8E88",
"@X c #BEA689",
"#X c #BFAF92",
"$X c #BD9D81",
"%X c #C0B497",
"&X c #D6B289",
"*X c #EEA380",
"=X c #EEA984",
"-X c #F3A581",
";X c #F3AC85",
":X c #FCA983",
">X c #F2B58B",
",X c #F3BA8D",
"<X c #FEBB8E",
"1X c #FBB289",
"2X c #F9BF90",
"3X c #C0BBA3",
"4X c #F7C28E",
"5X c #F8C28D",
"6X c #F6C392",
"7X c #F9C593",
"8X c #FBC996",
"9X c #FDCE9A",
"0X c #FED19B",
"qX c #EFC292",
"wX c #C0C2AE",
"eX c #FFD7A1",
"rX c #FFDAA4",
"tX c #FFDEA9",
"yX c #FFE2AD",
"uX c #FFE5B2",
"iX c #FFEABC",
"pX c #FFE8B6",
"aX c #FFEEC2",
"sX c #FFF0C6",
/* pixels */
"  D s.!.OXk.f.m g +.d.h.OX!.k.j.OXk.g.g.d.I g D +.g.+X!.w.k.OXOXg.d.+.A A +.f.k.!.OXk.d.+.A n +.d.g.+Xk.g.g.d.+.Z F @.f.k.+XOXk.k.d.P f I g.!.OXk.@.Z ",
"  ^.0XpXaXuXeX&XX.1X9XeXaXpXrXeXsXyXrXrX9X:X%.K.2XrXaXyX9XtXsXiXrX0X<X8.z.<X9XrXuXaXrX9X<Xu.z.<X9XrXaXtXrXrX9X:Xo.K.2X9XtXsXiXyXuX9X-X' >XtXuXaXtX7Xd.",
"  $X0X4X6X6X9X&X! 7X9X7X4X6X7X7X<X6X7X7X9X<X] K.9X7X4X7X8X6X4X<X7X8X7X7.z.9X8X7X6X4X6X9X7X8.8.7X8X7X6X7X7X7X9X7X| K.9X8X6X4X6X6X6X9X;XE qX8X7X4X7X0Xh.",
"  (.0X8X8X8X0X&X .oX7X9X0X9X9X9X9X9X9X9X7X|.%.S.;X9X9X9X9X9X9X9X9X8X-X8.z.-X8X9X9X9X0X8X-Xu.l.-X8X9X9X9X9X9X7X|.%.S.;X9X9X9X9X9X9X2X}.[ qX9X8X8X8X0Xd.",
"  v.<X9X9X9X8X_.b.'.}.,X>X>X,X>X,X>X>X,X}.'.*.H.'.=X,X,X,X,X,X,X,XXXW.l.x.W.=X,X>X>X,X*X'.z.x.'.*X,X>X>X>X,X}.'.*.H.`.=X,X>X,X,X,X[.'.+.}.8X0X9X9X;XP ",
"  l. X-X=X=X XS.X.].W.W.W.W.W.W.W.E.W.W.`.Q.#.B.{.W.W.W.W.W.W.W.W.W.].9.0.].W.W.W.W.W.W.].8.9.].W.E.W.W.W.W.W.].#.N.].W.W.W.W.W.W.W.Q.[ T.|.=X=XXX'.P ",
"  o.W.T.P.P.Y.q.r [ +.+.+.+.+.I I I I +.I K e l +.+.I I P I I +.+.+.[ n M O.+.I I I I I } l l [ I +.+.I I P I K s n } I I I I +.+.+.H s D.T.P.P.U.P.N ",
"  A H H +.+.G i 3 + O O O o , u i i , - > u f f * < > * e e * > X + + + + O < , 8 i u 4 o @ + X + O o 4 u i u * 5 5 * e e 5 > X X X + 6 s K +.I H H f ",
"  v.-X*X`.`.G.6 s E ) ) B s ^ 2.>.3.1.M ! 2.>.>.2.V Q 2.>.>.2.Q f E W Y W m M / >.>.>.^ f V ' ) ] B s ~ 3.>.>./ b Q 2.,.>.2.Q f T ) B 5 S E.W.{.-X|.} ",
"  ^.0X0X>X`.Y.7 f E c c m 5 m N N N V u n B x N V i g x x N N y u B ) c c n u N m N N n 5 b Y B c b 5 m x x x x i g x N z x s i c Y B 4 J `.[.,X0X8Xs.",
"  $X0X7X0X*XT.p 6 $ B ` ` <.` | 7 E -.-. .M g  . . .<. .g g ` -.<.B 4 ] -. .-.-.B u W <.-. .p N  .-.<.-.| u B  .<.<.b a  .` <.` ~ M $ - L E.>X9X6XyX!.",
"  #XyX6X9X*XT.6 7 a ^ M.L.I.I.A.x n.I.I.P.<...P.U.U.I.P. .X.P.U.Y.n.v F.U.L.I.I.n.x Z.I.I.P.B 4.R.I.I.U.Z.B q.U.I.U.6.T U.I.I.Z.M.~ 6 1 L E.>X9X7XtXk.",
"  3XpX4X9X*XP.Z 6 2 d { &.*.&.' & x &.*.%.t t #.&.&.&.#.q t #.&.*.H & ' &.&.*.&.N , ' &.*.#.* z %.%.*.&.{ = z &.&.*.j 8 ..&.&.&.H i ; - J E.>X9X7XrXg.",
"  wXiX4X0X*XP.7 d  .R ` _ * ..y.u.p.5.8 ) p.u.r.7.y v t.y.p.t.v w 8.p.t.t.' 0 5.y.u.y.| = #.u.u.t.$.* ] y.u.y.9.q c p.u.t.8.k G ` ` ! 5 L E.>X0X4XaXOX",
"  #XtX4X0X*XT.3 E 3.:.n.L.K L.U.I.I.R.[ C.U.U.U.R.$.0.R.U.U.R.u.$.R.I.I.U.C.[ R.I.I.U.L.H P.U.U.U.U.[ C.R.I.U.R.#.i.R.I.I.R.5.r.m.:.>.d D W.>X0X5XyX!.",
"  /.0X7X9X|.U.7 d W T ) T = ] r.r.r.X.= c t.r.r.$.q j 7.r.r.=.j q =.t.r.7.c * X.r.t.r.] & { r.r.7...= Y r.r.r.$.0 k r.r.r.7.w x ( ( Q 4 L E.=X9X8X0Xf.",
"  ^.0X9X-X'.).a 6 # M $.r.r.r...= { r.r.r.G q $.*.r.r.$.w z 7.r.t.#.= ] e.*.r.e.c 8 $.r.t.7.t k 7.e.r.r...* ( r.r.r.H 0 $.*.r.r...s 2 - J {.`.>X0X8Xw.",
"  b.[.).T.T.n.5 7 a 4.L.U.I.U.L.K 4.V.L.B.R 7.R.I.U.U.U.7.T B.J.V.4.G U.U.U.U.U.V.S m.D.J.m.x C.U.I.I.I.U.[ 1.V.L.A.` $.R.U.L.U.G.~ 6 6 m G.Y.Y.).).K ",
"  F E v } +.B 7 7 # B 8.p.p.p.5.8 X 4 7 : 2 c u.a.p.p.u.' - 5 7 7 3 t 6.p.u.u.a.X.7 : : 7 : 1 _ a.p.p.a.0.l ; 5 7 7 # j 8.y.p.p.5.M # 7 e B +.P C ' f ",
"  v.:X-X{.'.G.5 i c c c v & N &.&.#.j 4 p 7 4 % % % % % 4 p 7 7 7 p 7 # % % % % - 7 7 7 7 7 p ; @ % % % % 5 7 7 5 6 e { &.{ 9 l c c B 4 S Q.'. X;XoXU ",
"  ^.0X0X>X`.T.3 E >.:.n.L.H F.U.U.U.9.@ p p 7 r r p p p p 7 7 7 7 7 7 p p p p p p p 7 7 7 7 7 p p p p p p p 7 7 p 6 G F.I.R.7.7.m.:.3.d D W.[.2X0X9Xd.",
"  @X0X6X0X-XT.7 M <.~ -.1.e 9.a.a.a.c X p p 7 7 7 7 p p 7 7 7 7 7 7 : 7 7 p p 7 7 7 7 7 7 7 7 7 7 p 7 7 7 p 7 p 6 X g i.a.a.c [ -.-.~ u D E.>X9X6XyX!.",
"  @XrX6X0X*XT.a 6 6 g O.U O.O.G * z +.G p 7 7 7 7 7 7 7 7 7 7 7 7 7 p p 7 7 7 7 7 7 7 7 7 7 7 7 7 7 7 7 7 7 p 6 l [ y 8 K U [ O.G i 6 - L W.>X9X5XaX+X",
"  @XrX6X0X-XT.p 7 5 1.U.I.I.U.L.G C.U.Z.t 6 p 7 5 p 7 7 7 7 7 7 7 7 7 7 7 7 7 7 7 7 7 7 7 7 7 7 7 u 7 7 7 7 p X 9.R.8.{ U.I.L.I.V.~ 6 ; L W.>X9X4XiX~.",
"  %XyX7X0X*XT.p 7 1 o.S.C.H.H.q.y 6.H.i.t 6 p 7 7 7 7 7 p 7 7 7 7 7 7 7 7 7 7 7 7 7 7 7 7 7 7 p 7 7 7 7 7 7 p # ] D.5.x C.S.H.J.i.B ; ; L E.>X9X7X0Xf.",
"  #XyX6X0X*XP.p p g n m l a S J S J G e 7 p 7 7 7 7 7 7 7 7 7 7 7 7 7 7 7 7 7 7 7 7 7 7 7 7 7 7 7 7 7 7 7 7 7 p 7 y J S J J t Z z l g - L E.>X9X7X0Xh.",
"  (.0X8X9X}.T.6 B :.;.q.B.m C.L.L.I.Z.G - p 7 7 7 7 7 7 7 7 7 7 7 7 7 7 7 7 7 7 7 7 7 r 7 7 7 7 7 7 7 7 7 p 7 p # 0.I.L.L.L...5.q.:.2.t L E.>X9X6XiXOX",
"  ^.9X8X-X`.W.3 V ;./ q.N.n i.L.J.J.V.G - p 7 7 7 7 7 7 7 7 7 7 7 7 r 7 7 7 7 7 7 7 7 7 7 7 7 7 7 7 7 7 7 7 p p # 6.J.J.J.F.{ $.,.;.^ i L E.>X0X4XaX+X",
"  l.).).J.T.n.7 7 f d m m g S S Z S G t 7 7 7 7 7 p 7 7 7 7 7 7 7 7 7 7 7 7 7 7 7 7 7 7 7 7 7 p 7 7 : p 7 7 7 7 e l A A J J Z A z s f - J E.>X9X5XuX!.",
"  F W B O.@.B 7 7 1  .C.J.J.J.N.l q.J.N.t 6 p 7 7 7 7 7 7 7 7 7 7 7 7 7 7 7 p 7 7 7 7 7 7 7 7 : 7 p 7 7 p 7 p X $.F.X.H V.J.J.J.N.Q 3 ; L E.>X9X4XaX+X",
"  v.:X;X{.'.P.7 7 6 <.L.I.L.I.D.S N.I.V.f 6 p 7 7 7 7 7 7 7 7 7 p 7 7 7 7 7 7 7 7 7 7 7 p 7 7 p 7 7 7 7 7 7 p @ $.U.u.) L.I.F.L.V.! 1 1 L W.>X9X8X0Xg.",
"  (.0X0X,X`.Y.a 5 7 s G J J J S r l P l p 7 7 7 7 7 7 7 7 p 7 7 7 7 7 7 7 7 7 7 7 7 7 7 7 7 7 7 7 p : p 7 7 p : t G A e G J J J m i p 2 J E.>X0X7XyXk.",
"  $X0X6X9X*XT.6 b -.-.1.q.t 0.H.S.S.i.l 1 p 7 7 7 7 7 5 7 7 7 7 7 7 7 7 r 7 7 7 7 7 7 7 7 7 7 7 7 7 7 7 7 7 7 p # X.C.H.H.C.) { 4.;.` i J E.>X9X6XyX!.",
"  3XpX6X9X-XU.3 E >.:.n.Z.G V.U.I.U.U.[ - p 7 7 7 7 7 p 7 7 7 7 7 7 7 7 7 7 7 7 7 7 7 7 7 p 7 7 7 7 7 p 7 7 7 r - i.U.I.I.U.$.7.m.:.2.t D `.[.,X9X8Xw.",
"  3XuX2X0X*XP.7 a N x x k * z +.@.O.K 8 7 7 7 7 r 7 7 7 5 p 7 7 7 7 7 7 7 7 7 7 7 7 7 7 7 7 7 7 7 7 7 7 7 7 7 p 1 y O.O.O.O.9 g x G m 1 z E.R.{.*X|.P ",
"  #XtX6X0X*XK.Z 5 # E u.c.a.a.0.q X.c.6.e 6 7 7 7 7 7 7 7 7 7 7 7 7 7 7 7 7 7 7 7 7 7 7 7 7 7 7 7 7 7 7 7 7 p # ..C.) y u.a.c.a.6.b - 7 a H I K C H f ",
"  /.0X7X0X*XP.p 7 u 4.L.U.L.I.U.K C.U.F.g 6 7 7 7 7 7 7 7 7 7 7 7 7 7 7 7 7 7 7 7 7 7 7 7 7 7 7 7 7 7 7 7 7 p X 5.R.a.{ R.U.I.I.L.~ : 6 m P.Y.`.}.[.K ",
"  ^.0X0X=X`.Y.p 6 2 d { &.*.&.' & x *.) r 7 7 7 7 7 7 7 7 p 7 7 7 7 7 7 7 7 7 7 7 7 7 7 7 7 7 7 7 7 7 7 7 7 p 6 j #.G 0 { &.&.&.' s 2 - L `.`.,X0X8Xs.",
"  l.|.}.R.W.Z.6 d ~ _  ._ * ..y.u.p.5.t 4 p 7 7 7 7 7 7 7 7 7 7 7 7 7 7 7 7 7 7 7 7 7 7 7 7 7 7 7 7 7 7 7 7 7 p 2 Y u.y.r.t.k G  .~ W 5 L W.=X0X7X9Xh.",
"  F V C P I x - E 3.:.n.P.H L.U.I.U.U.O.# p 7 7 7 7 7 7 7 7 7 7 7 7 7 7 p 7 7 7 7 7 r 7 7 7 7 7 7 7 7 r 7 7 7 p - C.R.U.U.R.9.8.m.:.3.y D W.>X9X7XyXk.",
"  l.oXXX`.`.F.5 d W ] ] T = ] r.r.r.X.e 6 p 7 7 7 7 7 7 7 7 7 7 7 p 7 7 7 7 7 7 7 7 7 7 7 7 7 7 7 7 p 7 7 7 p p $ v r.r.7.7.w z ( ( Q 4 J W.>X9X4XiX~.",
"  ^.0X9X;X`.`.p 6 $ M $.e.7.e.| = c r...r 7 7 7 7 7 7 7 7 7 7 7 7 7 7 7 7 7 7 7 7 7 7 7 7 7 7 p 7 7 7 7 7 7 p ; H 7.k 9 $.*.r.r...d 2 - J E.>X9X4XiX~.",
"  #XtX6X9X*XL.p 7 p 3.U.U.I.I.I.K H.U.L.g 4 p 7 7 7 p 7 7 7 7 7 7 7 7 7 7 p 7 7 7 7 7 7 7 7 7 7 7 7 7 7 7 7 p X 9.R.u.#.R.U.I.U.G.~ 6 4 L W.>X9X7X0Xh.",
"  #XtX6X9X*XJ.Z 7 # B 6.x.x.x.5.0 _ p.5.e 7 7 7 7 7 7 7 7 u 7 7 7 7 7 7 7 7 7 7 7 7 p 7 7 7 7 7 7 7 7 7 7 7 p 3 c u.{ q 8.r.p.p.5.M 2 - L '.[.6X0X9Xd.",
"  $XrX7X9X*XP.7 i B c c v & H &.&.&.) * 6 p 7 7 p 5 7 7 7 7 7 7 7 7 7 7 7 7 7 7 7 7 7 r 7 7 7 7 7 7 7 7 7 7 7 p ; j &.&.&.{ q g c Y B 1 G Q.`. X1X-X+.",
"  wXpX,X0X*XT.3 B >.:.n.L.K V.U.I.U.U.[ # p 7 7 7 7 7 7 7 7 7 7 7 7 7 7 7 7 7 7 7 7 7 7 7 7 7 7 7 7 7 7 7 7 7 p - N.U.I.U.R.5.r.m.:.2.n 7 ' @.} v ] g ",
"  %XyX6X9X*XP.7 M -.` -.1.e 5.a.a.c.u.l 3 p 7 7 7 7 7 7 7 7 7 7 7 7 r 7 7 7 7 7 7 7 7 7 7 7 7 7 7 7 7 7 7 7 7 p $ _ c.c.a.a.c ' 1.-.~ i n D.T.T.).).J ",
"  wXiX6X9X*XK.Z 7 6 t K O.O.O.G * z O.x r 7 7 7 7 5 p 7 7 7 7 7 7 7 7 7 7 7 7 7 7 7 7 7 7 7 7 7 7 7 7 p 7 7 7 6 l [ y 8 K U O.O.N i 6 < L '.`.;X9X8X+.",
"  3XuX6X9X*XP.p 7 6 1.L.T.I.I.L.J C.U.Z.g 6 7 7 7 7 7 7 7 7 7 7 7 7 7 7 7 7 7 7 7 7 7 7 7 7 7 7 7 7 7 7 7 7 p X 5.R.8.{ U.I.L.U.F.! 4 1 J W.=X8X8X0Xf.",
"  $X0X7X9X*XP.p 7 3 | N.H.D.J.q.y 6.H.i.t 6 p 7 7 7 7 7 7 7 7 p 7 7 7 7 7 7 7 7 7 7 7 7 7 7 7 7 7 7 7 7 7 7 a # ( V.7.z C.S.H.S.i.B 2 ; L W.>X9X6XyXk.",
"  /.0X8X9X*XJ.Z u g n b z i m J S J G 8 7 7 7 7 7 7 7 7 7 7 7 7 7 7 7 7 r 7 7 7 7 7 r 7 7 7 7 7 p 7 7 7 7 7 7 7 7 y J S G K t A m n d - L E.>X9X7XpX!.",
"  3XuX6X0X*XT.6 B 2.;.q.B.A N.I.J.I.F.H - p 7 7 p 7 7 7 7 7 7 7 7 7 7 7 7 7 7 7 7 7 7 7 7 7 7 7 7 7 7 7 7 7 7 p # 0.L.L.L.P.#.$.,.:.2.s L W.>X9X7XrXg.",
"  wXiX4X0XXXP.6 V ;.;.q.N.n i.I.D.J.Z.G - p 7 7 7 7 7 7 7 7 7 7 7 7 7 7 7 7 7 7 7 7 7 7 7 7 7 7 7 7 7 7 7 7 7 p 2 6.L.J.J.J.{ $.4.;.;.i D E.>X9X7XrXg.",
"  %XyX6X0XXXP.p 7 f d m n g S S A Z g p p 7 7 7 7 7 7 7 7 7 7 7 7 7 7 7 7 7 7 7 7 7 7 7 7 7 7 7 7 7 7 7 7 7 7 7 7 e A Z J J g A z d f < J E.>X9X8X0Xg.",
"  ^.0X0X>X`.Y.p 7 1  .C.J.H.H.C.l $ 6 7 7 7 7 7 7 7 7 7 7 7 7 7 7 7 7 7 7 7 7 7 7 7 7 7 7 7 7 p 7 7 7 7 7 7 7 7 7 p X ' D.J.J.J.N.Q 3 ; J `.[.4X0X9Xd.",
"  v.:X-X{.'.P.p 7 5 1.F.I.L.I.Z.G 6 p 7 7 7 7 7 7 7 7 p p p p 7 7 7 7 7 7 7 7 7 p p p p 7 7 7 7 * 7 7 p p p p p p p $ { L.L.F.I.V.! 3 1 G Q.`. X;XoXP ",
"  F Q v +.+.B 7 7 7 f G J G J n : ; 6 7 6 p p p 7 5 6 3 3 ; 3 : : p p p p 7 7 6 3 ; 3 6 7 7 p p p 7 7 6 3 ; ; 6 : 7 p e G K J J z e 7 7 r H I P C ' Z ",
"  l.[.).T.T.B.1 m <.-.1.q.e * Z A A y 7 6.V.S.H.V.) 7 z A A z 7 ) C.H.C.H.6.7 y A S A t y q.H.S.H.i.z e A S A y : 5.H.S.S.C.' { 4.;.<.i l Z.Y.Y.).).L ",
"  ^.0X9X*X`.Y.3 B 3.2.n.Z.G m.L.U.U.B.x i.U.I.I.U.#.-.A.U.U.A.` #.U.L.U.P.a.x B.I.I.U.m.G Z.I.I.U.L.G ,.G.U.U.A.c u.U.I.I.R.$.r.m./ 2.d L '.`.>X0X8X+.",
"  (.0X8X9X}.K.Z u V x x k 5 [ +.O.O.{ a j +.O.O.K 8 A O.O.@.@.S 8 [ @.[ O.j e { O.O.O.K : x @.O.O.H : G O.@.O.O.t w O.{ O.O.9 y x x m 1 L W.=X0X7X0Xf.",
"  %XrX6X0X*XT.p 5 2 Q u.a.a.p.0.9 X.a.a.a.c x a.p.C.a.p.x x u.a.a.5.9 6.p.a.a.a.X.e 6.a.C.u.t | a.a.a.c.0.q | a.a.C.) j u.p.a.a.0.b - ; J E.>X9X7XyX!.",
"  wXpX4X9X*XP.7 7 u 4.L.U.U.U.L.K V.I.U.R.7.$.R.U.L.U.R.5.7.R.I.R.V.K L.U.U.I.`.V.K P.U.I.U.{ i.R.I.I.I.U.[ C.U.I.U.u.{ R.U.U.U.F. .6 1 L W.>X9X4XaXOX",
"  @XrX7X0X*XJ.Z 6 # l { &.=.&.' & x &.*.%.q 9 { &.&.&.#.q q #.&.*.x & H &.&.&.&.x & ' &.*.{ = j #.&.*.&.{ = k &.&.*.j 0 { #.&.&.' s 2 - L W.>X9X7XrXg.",
"  @XrX6X0X*XP.7 d ~ R $.$.= X.p.p.p.5.8 ( p.p.y.8.w v t.p.p.t.v w t.a.y.t.) 0 5.y.p.p._ = $.a.y.y.5.* ] y.p.p.9.q c p.p.y.u.w @.X.R ! 5 J W.>X0X7XrXk.",
"  %XtX6X9X*XP.3 E 3.:.M.V.G n.L.F.L.A.B q.L.F.G.Z.] 1.P.F.F.P.<.] F.L.F.P.q.B B.L.L.L.n.m n.P.F.L.A.N q.L.L.L.Z.E 9.G.F.L.G.| o.M.>.3.d D W.>X9X7XeXj.",
"  ^.0X9X>X`.Y.7 d W ( T b < b T T R B a b W T Y E u s Y T T Y a 5 E R T T b i E R T T M 2 b R T Y V < M T R R T i M ! T Y Y i u E _ E 4 J '.[.,X0X9Xs.",
"  l.-X*X`.`.G.5 5 2 V ] | _ _ E 5 2 1 u 5 $ g W ]  ._ W s s W _ ~ V 3 3 1 6 p 1 2 7 Q _ ~ W u M R _ | _ E u < 1 7 7 # i W _ _ _ W M 3 ; m E.W.[.-X|.P ",
"  F ' H I +.G i 6 < i l d y j s 1 # 7 4 - - 5 d j t y y 5 f n y d s - < - - # 7 4 > t y d d 4 u j y y y n u < < - # < 5 t j y y y h # 7 t K +.I B H a ",
"  o.E.T.T.P.Y.q.u [ +.I I I I I I [ d n } +.I I L I I P K s n I I I I +.+.+.K s m O.I I I I I I L I I P s d [ +.I +.+.I I I I I I +.H i Z.Y.P.P.U.P.N ",
"  l. X=X-X-X}.H.o.].W.W.W.W.W.E.W.].5.0.].W.E.W.W.W.W.W.Q.{ B.{.W.W.W.W.W.'.Q...N.'.W.W.W.W.W.E.W.W.W.].9.0.].W.E.W.W.W.E.W.W.W.W.'.Q.' U.|.=X=XXX{.P ",
"  v.<X8X9X9X7X_.*.W.}.,X>X>X,X,X}.'.l.x.'.*X>X>X,X,X,X}.W.&.K.'.=X,X,X>X,X}.'.*.H.'.=X,X,X,X,X>X,X,X}.{.l.x.'.*X,X,X>X>X>X>X>X,X,X[.W.+.}.9X9X9X9X;XI ",
"  (.eX8X8X8X9X&X..oX8X0X9X9X9X9X9X-X7.z.;X9X9X9X9X9X9X7X*X#.K.;X9X9X9X9X0X7X|.%.H.;X9X9X9X9X9X9X0X9X8X-X7.u.;X8X9X9X0X0X9X9X9X9X0X6X}.P ,X9X8X8X8X9Xf.",
"  $X0X6X4X7X9X&X! 7X9X6X7X7X4X7X9X7X9.z.8X8X7X6X7X2X7X9X,XQ K.0X7X6X5X6X8X9X2X| K.9X8X7X4X,X7X8X6X4X8X7X9.z.8X8X7X7X6X4X7X7X6X4X6X9X;XE qX9X6X4X6X0Xf.",
"  ^.9XuXaXyXeX.XX.1X9XrXeXyXaXrX9X<X8.c.<X0XtXeXuXaX0X9X:X..Y.7X0XyXaXyXeX9X:X#.K.5X0XyXsXaXeX9XiXiX0X1Xl.x.<X9XrXrXuXaX0XtXiXiXeX9X-X' >XrXuXaXtX7Xs.",
"  D s.!.~.!.h.D Z +.s.g.g.k.+Xg.d.+.Z A I f.k.f.!.OXj.s.I Z D @.f.k.OX~.g.d.U Z G +.d.g.+XOXh.d.~.~.j.+.Z A @.d.g.j.!.OXj.k.~.OXj.d.P f L k.k.OX!.+.A "
};
